<svg width="898" height="731" viewBox="0 0 898 731" fill="none" xmlns="http://www.w3.org/2000/svg">
<path d="M93.0384 441.053C90.4288 539.605 221.215 640.208 384.466 640.208C547.717 640.208 807.697 445.918 684.223 441.053C446.306 431.679 364.775 332.707 388.631 262.548C431.355 136.897 98.1766 247.006 93.0384 441.053Z" fill="#5C1952"/>
<path d="M427.525 284.088L425.535 282.816L426.802 280.817L426.258 280.47L424.992 282.47L423.002 281.197L422.656 281.742L424.647 283.014L423.38 285.014L423.923 285.361L425.189 283.362L427.179 284.633L427.525 284.088Z" fill="#6C63FF"/>
<path d="M575.539 428.849L573.548 427.577L574.815 425.577L574.272 425.231L573.006 427.23L571.016 425.958L570.67 426.503L572.66 427.775L571.393 429.774L571.937 430.122L573.203 428.122L575.193 429.394L575.539 428.849Z" fill="#6C63FF"/>
<path d="M335.99 411.243L334 409.971L335.267 407.971L334.724 407.625L333.458 409.624L331.467 408.352L331.121 408.897L333.112 410.169L331.845 412.168L332.388 412.516L333.654 410.516L335.645 411.788L335.99 411.243Z" fill="#6C63FF"/>
<path d="M579.399 375.053L577.409 373.78L578.676 371.781L578.133 371.435L576.867 373.434L574.876 372.162L574.531 372.706L576.521 373.979L575.254 375.978L575.797 376.325L577.063 374.326L579.054 375.598L579.399 375.053Z" fill="#6C63FF"/>
<path d="M348.649 468.952L346.659 467.679L347.926 465.68L347.383 465.334L346.117 467.333L344.126 466.061L343.781 466.605L345.771 467.878L344.504 469.877L345.047 470.224L346.313 468.225L348.304 469.497L348.649 468.952Z" fill="#6C63FF"/>
<path d="M814.079 290.935L812.089 289.663L813.355 287.663L812.812 287.317L811.546 289.316L809.556 288.044L809.21 288.589L811.2 289.861L809.934 291.86L810.477 292.208L811.743 290.208L813.733 291.48L814.079 290.935Z" fill="#6C63FF"/>
<path d="M307.751 302.673L305.761 301.4L307.027 299.401L306.484 299.054L305.218 301.054L303.228 299.781L302.882 300.326L304.872 301.599L303.606 303.598L304.149 303.945L305.415 301.946L307.405 303.217L307.751 302.673Z" fill="#6C63FF"/>
<path d="M474.266 324.66L471.479 322.879L473.253 320.08L472.493 319.595L470.72 322.393L467.934 320.612L467.45 321.376L470.237 323.156L468.464 325.956L469.223 326.442L470.996 323.642L473.782 325.423L474.266 324.66Z" fill="white"/>
<path d="M373.968 361.653C375.581 361.653 376.889 360.34 376.889 358.719C376.889 357.098 375.581 355.785 373.968 355.785C372.354 355.785 371.046 357.098 371.046 358.719C371.046 360.34 372.354 361.653 373.968 361.653Z" fill="#6C63FF"/>
<path d="M260.036 361.653C261.649 361.653 262.957 360.34 262.957 358.719C262.957 357.098 261.649 355.785 260.036 355.785C258.423 355.785 257.115 357.098 257.115 358.719C257.115 360.34 258.423 361.653 260.036 361.653Z" fill="#6C63FF"/>
<path d="M458.686 254.061C460.299 254.061 461.607 252.747 461.607 251.126C461.607 249.506 460.299 248.192 458.686 248.192C457.073 248.192 455.765 249.506 455.765 251.126C455.765 252.747 457.073 254.061 458.686 254.061Z" fill="#6C63FF"/>
<path d="M431.42 433.056C433.034 433.056 434.342 431.742 434.342 430.121C434.342 428.501 433.034 427.187 431.42 427.187C429.807 427.187 428.499 428.501 428.499 430.121C428.499 431.742 429.807 433.056 431.42 433.056Z" fill="#6C63FF"/>
<path d="M429.473 370.456C430.548 370.456 431.42 369.581 431.42 368.5C431.42 367.42 430.548 366.544 429.473 366.544C428.397 366.544 427.525 367.42 427.525 368.5C427.525 369.581 428.397 370.456 429.473 370.456Z" fill="#6C63FF"/>
<path d="M693.331 326.441C694.407 326.441 695.279 325.565 695.279 324.485C695.279 323.405 694.407 322.529 693.331 322.529C692.255 322.529 691.383 323.405 691.383 324.485C691.383 325.565 692.255 326.441 693.331 326.441Z" fill="#FF6584"/>
<path d="M331.122 349.916C332.197 349.916 333.069 349.04 333.069 347.96C333.069 346.879 332.197 346.004 331.122 346.004C330.046 346.004 329.174 346.879 329.174 347.96C329.174 349.04 330.046 349.916 331.122 349.916Z" fill="#FF6584"/>
<path d="M458.843 179.462C459.919 179.462 460.791 178.586 460.791 177.505C460.791 176.425 459.919 175.549 458.843 175.549C457.768 175.549 456.896 176.425 456.896 177.505C456.896 178.586 457.768 179.462 458.843 179.462Z" fill="#FF6584"/>
<path d="M372.994 282.426C374.069 282.426 374.941 281.55 374.941 280.47C374.941 279.389 374.069 278.514 372.994 278.514C371.918 278.514 371.046 279.389 371.046 280.47C371.046 281.55 371.918 282.426 372.994 282.426Z" fill="#6C63FF"/>
<path d="M403.338 204.892C404.414 204.892 405.286 204.017 405.286 202.936C405.286 201.856 404.414 200.98 403.338 200.98C402.263 200.98 401.391 201.856 401.391 202.936C401.391 204.017 402.263 204.892 403.338 204.892Z" fill="white"/>
<path d="M752.731 263.842C754.345 263.842 755.653 262.528 755.653 260.908C755.653 259.287 754.345 257.973 752.731 257.973C751.118 257.973 749.81 259.287 749.81 260.908C749.81 262.528 751.118 263.842 752.731 263.842Z" fill="#6C63FF"/>
<path d="M494.716 404.69C496.329 404.69 497.637 403.377 497.637 401.756C497.637 400.135 496.329 398.822 494.716 398.822C493.102 398.822 491.794 400.135 491.794 401.756C491.794 403.377 493.102 404.69 494.716 404.69Z" fill="#6C63FF"/>
<path d="M445.053 480.983C450.431 480.983 454.791 476.604 454.791 471.202C454.791 465.8 450.431 461.421 445.053 461.421C439.675 461.421 435.315 465.8 435.315 471.202C435.315 476.604 439.675 480.983 445.053 480.983Z" fill="#6C63FF"/>
<path d="M562.88 367.522C564.493 367.522 565.801 366.208 565.801 364.588C565.801 362.967 564.493 361.653 562.88 361.653C561.266 361.653 559.958 362.967 559.958 364.588C559.958 366.208 561.266 367.522 562.88 367.522Z" fill="white"/>
<g clip-path="url(#clip0_1_105)">
<path d="M834.026 540.25H161.974C161.716 540.25 161.468 540.147 161.285 539.963C161.103 539.78 161 539.531 161 539.272C161 539.012 161.103 538.763 161.285 538.58C161.468 538.396 161.716 538.293 161.974 538.293H834.026C834.284 538.293 834.532 538.396 834.715 538.58C834.897 538.763 835 539.012 835 539.272C835 539.531 834.897 539.78 834.715 539.963C834.532 540.147 834.284 540.25 834.026 540.25Z" fill="#CCCCCC"/>
<path d="M767.507 369.643H372.068C370.388 369.643 368.778 370.313 367.591 371.505C366.404 372.698 365.737 374.315 365.737 376.001C365.737 377.688 366.404 379.305 367.591 380.498C368.778 381.69 370.388 382.36 372.068 382.36H383.268V534.476C383.268 536.163 383.935 537.78 385.123 538.973C386.31 540.165 387.92 540.835 389.599 540.835C391.278 540.835 392.889 540.165 394.076 538.973C395.263 537.78 395.93 536.163 395.93 534.476L396.026 382.36H742.67V534.476C742.67 536.163 743.337 537.78 744.524 538.973C745.712 540.165 747.322 540.835 749.001 540.835C750.68 540.835 752.29 540.165 753.478 538.973C754.665 537.78 755.332 536.163 755.332 534.476V385.713L757.174 382.36H767.507C769.186 382.36 770.796 381.69 771.983 380.498C773.171 379.305 773.838 377.688 773.838 376.001C773.838 374.315 773.171 372.698 771.983 371.505C770.796 370.313 769.186 369.643 767.507 369.643V369.643Z" fill="#CCCCCC"/>
<path d="M597.302 360.971H477.519C475.2 360.968 472.976 360.041 471.336 358.394C469.696 356.747 468.774 354.514 468.771 352.184V285.948C468.774 283.619 469.696 281.386 471.336 279.738C472.976 278.091 475.2 277.165 477.519 277.162H597.302C599.622 277.165 601.845 278.091 603.485 279.738C605.125 281.386 606.048 283.619 606.05 285.948V352.184C606.048 354.514 605.125 356.747 603.485 358.394C601.845 360.041 599.622 360.968 597.302 360.971V360.971Z" fill="#3F3D56"/>
<path d="M597.302 283.924H477.52C476.986 283.925 476.474 284.139 476.096 284.519C475.718 284.898 475.505 285.413 475.504 285.949V352.186C475.505 352.723 475.718 353.237 476.096 353.616C476.474 353.996 476.986 354.21 477.52 354.211H597.302C597.836 354.21 598.348 353.996 598.726 353.616C599.104 353.237 599.317 352.723 599.318 352.186V285.949C599.317 285.413 599.104 284.898 598.726 284.519C598.348 284.139 597.836 283.925 597.302 283.924V283.924Z" fill="white"/>
<path d="M541.627 342.819C541.627 342.819 527.288 339.501 519.401 345.585C511.514 351.669 529.438 365.497 529.438 365.497L541.627 342.819Z" fill="#2F2E41"/>
<path d="M532.113 336.549C539.583 336.549 545.639 330.467 545.639 322.964C545.639 315.461 539.583 309.379 532.113 309.379C524.643 309.379 518.587 315.461 518.587 322.964C518.587 330.467 524.643 336.549 532.113 336.549Z" fill="#A0616A"/>
<path d="M527.654 291.894C528.556 290.356 529.863 289.099 531.432 288.261C533.001 287.423 534.769 287.036 536.543 287.144C538.398 287.378 540.209 287.887 541.915 288.654L550.757 292.118C553.045 293.015 555.551 294.113 556.544 296.369C557.465 298.463 556.778 300.881 556.082 303.061L552.774 313.424C552.407 311.079 551.778 308.782 550.899 306.579C550.005 304.36 548.39 302.511 546.317 301.332C544.02 300.148 541.313 300.173 538.735 300.297C535.083 300.474 531.113 300.94 528.518 303.527C527.141 304.996 526.207 306.828 525.826 308.809C525.45 310.78 525.261 312.781 525.261 314.788C523.764 312.202 522.502 309.486 521.492 306.673C520.662 304.578 520.188 302.357 520.092 300.104C520.005 297.832 520.756 295.607 522.2 293.856C522.934 293 523.89 292.367 524.962 292.028C526.035 291.69 527.18 291.658 528.269 291.938L527.654 291.894Z" fill="#2F2E41"/>
<path d="M564.409 354.599C564.282 354.14 564.023 353.729 563.665 353.418C563.306 353.106 562.864 352.908 562.393 352.848C562.362 352.826 562.33 352.807 562.296 352.789L542.104 341.424C541.527 341.099 540.848 341.011 540.208 341.176C539.568 341.342 539.016 341.749 538.667 342.312L533.145 351.293L524.827 342.939L524.695 342.806C524.268 342.377 523.704 342.113 523.103 342.06C522.501 342.007 521.901 342.169 521.406 342.517L504.811 354.188C504.782 354.188 504.753 354.198 504.724 354.198C503.929 354.331 503.204 354.732 502.667 355.335C502.131 355.938 501.815 356.707 501.772 357.514L501.344 366.211H567.614L564.409 354.599Z" fill="#6C63FF"/>
<path d="M601.396 364.86H588.611C588.611 364.502 588.469 364.158 588.216 363.904C587.964 363.651 587.622 363.508 587.265 363.508H583.227C582.87 363.508 582.528 363.651 582.275 363.904C582.023 364.158 581.881 364.502 581.881 364.86H577.844C577.844 364.502 577.702 364.158 577.449 363.904C577.197 363.651 576.855 363.508 576.498 363.508H572.46C572.103 363.508 571.761 363.651 571.508 363.904C571.256 364.158 571.114 364.502 571.114 364.86H567.077C567.077 364.502 566.935 364.158 566.682 363.904C566.43 363.651 566.088 363.508 565.731 363.508H561.693C561.336 363.508 560.994 363.651 560.741 363.904C560.489 364.158 560.347 364.502 560.347 364.86H556.31C556.31 364.502 556.168 364.158 555.915 363.904C555.663 363.651 555.321 363.508 554.964 363.508H550.926C550.569 363.508 550.227 363.651 549.974 363.904C549.722 364.158 549.58 364.502 549.58 364.86H545.543C545.543 364.502 545.401 364.158 545.148 363.904C544.896 363.651 544.554 363.508 544.197 363.508H540.159C539.802 363.508 539.46 363.651 539.207 363.904C538.955 364.158 538.813 364.502 538.813 364.86H534.776C534.776 364.502 534.634 364.158 534.381 363.904C534.129 363.651 533.787 363.508 533.43 363.508H529.392C529.035 363.508 528.693 363.651 528.44 363.904C528.188 364.158 528.046 364.502 528.046 364.86H524.009C524.009 364.502 523.867 364.158 523.614 363.904C523.362 363.651 523.02 363.508 522.663 363.508H518.625C518.268 363.508 517.926 363.651 517.673 363.904C517.421 364.158 517.279 364.502 517.279 364.86H513.242C513.242 364.502 513.1 364.158 512.847 363.904C512.595 363.651 512.253 363.508 511.896 363.508H507.858C507.501 363.508 507.159 363.651 506.906 363.904C506.654 364.158 506.512 364.502 506.512 364.86H502.475C502.475 364.502 502.333 364.158 502.08 363.904C501.828 363.651 501.486 363.508 501.129 363.508H497.091C496.734 363.508 496.392 363.651 496.139 363.904C495.887 364.158 495.745 364.502 495.745 364.86H491.708C491.708 364.502 491.566 364.158 491.313 363.904C491.061 363.651 490.719 363.508 490.362 363.508H486.324C485.967 363.508 485.625 363.651 485.372 363.904C485.12 364.158 484.978 364.502 484.978 364.86H480.941C480.941 364.502 480.799 364.158 480.546 363.904C480.294 363.651 479.952 363.508 479.595 363.508H475.557C475.2 363.508 474.858 363.651 474.605 363.904C474.353 364.158 474.211 364.502 474.211 364.86H461.425C460.356 364.862 459.33 365.29 458.574 366.05C457.819 366.81 457.394 367.841 457.394 368.915C457.394 369.99 457.819 371.02 458.574 371.781C459.33 372.541 460.356 372.969 461.425 372.971H601.396C602.467 372.971 603.494 372.543 604.251 371.783C605.009 371.022 605.434 369.991 605.434 368.915C605.434 367.84 605.009 366.808 604.251 366.048C603.494 365.287 602.467 364.86 601.396 364.86V364.86Z" fill="#3F3D56"/>
<path d="M440.612 341.31V368.237H373.443C371.644 368.3 369.85 367.998 368.169 367.35C366.488 366.701 364.954 365.72 363.659 364.463C362.364 363.207 361.333 361.702 360.63 360.037C359.926 358.372 359.564 356.582 359.564 354.773C359.564 352.965 359.926 351.175 360.63 349.51C361.333 347.845 362.364 346.34 363.659 345.083C364.954 343.827 366.488 342.845 368.169 342.197C369.85 341.549 371.644 341.247 373.443 341.31H440.612Z" fill="#F2F2F2"/>
<path d="M442.262 368.03C442.261 368.304 442.153 368.568 441.959 368.762C441.766 368.956 441.504 369.065 441.23 369.065H372.247C368.5 369.065 364.907 367.57 362.258 364.91C359.609 362.249 358.12 358.64 358.12 354.877C358.12 351.114 359.609 347.505 362.258 344.844C364.907 342.183 368.5 340.689 372.247 340.689H441.23C441.504 340.689 441.766 340.798 441.96 340.992C442.153 341.186 442.262 341.45 442.262 341.724C442.262 341.999 442.153 342.262 441.96 342.457C441.766 342.651 441.504 342.76 441.23 342.76H372.247C369.049 342.763 365.983 344.041 363.723 346.313C361.463 348.585 360.193 351.665 360.193 354.877C360.193 358.089 361.463 361.169 363.723 363.441C365.983 365.713 369.049 366.991 372.247 366.994H441.23C441.504 366.994 441.766 367.103 441.959 367.297C442.153 367.492 442.261 367.755 442.262 368.03V368.03Z" fill="#6C63FF"/>
<path d="M440.612 347.524H368.432C368.404 347.524 368.377 347.519 368.352 347.508C368.327 347.498 368.304 347.483 368.285 347.464C368.266 347.444 368.25 347.422 368.24 347.396C368.229 347.371 368.224 347.344 368.224 347.317C368.224 347.289 368.229 347.262 368.24 347.237C368.25 347.212 368.266 347.189 368.285 347.17C368.304 347.15 368.327 347.135 368.352 347.125C368.377 347.115 368.404 347.109 368.432 347.11H440.612C440.666 347.11 440.718 347.132 440.757 347.171C440.795 347.21 440.817 347.262 440.817 347.317C440.817 347.371 440.795 347.424 440.757 347.463C440.718 347.501 440.666 347.523 440.612 347.524V347.524Z" fill="#CCCCCC"/>
<path d="M440.612 352.495H368.432C368.404 352.495 368.377 352.49 368.352 352.48C368.327 352.469 368.304 352.454 368.285 352.435C368.266 352.416 368.25 352.393 368.24 352.367C368.229 352.342 368.224 352.315 368.224 352.288C368.224 352.261 368.229 352.233 368.24 352.208C368.25 352.183 368.266 352.16 368.285 352.141C368.304 352.122 368.327 352.106 368.352 352.096C368.377 352.086 368.404 352.081 368.432 352.081H440.612C440.666 352.081 440.718 352.103 440.757 352.142C440.795 352.181 440.817 352.233 440.817 352.288C440.817 352.343 440.795 352.395 440.757 352.434C440.718 352.473 440.666 352.495 440.612 352.495V352.495Z" fill="#CCCCCC"/>
<path d="M440.612 357.466H368.432C368.404 357.466 368.377 357.461 368.352 357.451C368.327 357.44 368.304 357.425 368.285 357.406C368.266 357.387 368.25 357.364 368.24 357.339C368.229 357.313 368.224 357.286 368.224 357.259C368.224 357.232 368.229 357.205 368.24 357.179C368.25 357.154 368.266 357.131 368.285 357.112C368.304 357.093 368.327 357.077 368.352 357.067C368.377 357.057 368.404 357.052 368.432 357.052H440.612C440.666 357.052 440.718 357.074 440.757 357.113C440.795 357.152 440.817 357.204 440.817 357.259C440.817 357.314 440.795 357.366 440.757 357.405C440.718 357.444 440.666 357.466 440.612 357.466V357.466Z" fill="#CCCCCC"/>
<path d="M440.612 362.437H368.432C368.404 362.437 368.377 362.432 368.352 362.422C368.327 362.411 368.304 362.396 368.285 362.377C368.266 362.358 368.25 362.335 368.24 362.31C368.229 362.284 368.224 362.257 368.224 362.23C368.224 362.203 368.229 362.176 368.24 362.15C368.25 362.125 368.266 362.102 368.285 362.083C368.304 362.064 368.327 362.049 368.352 362.038C368.377 362.028 368.404 362.023 368.432 362.023H440.612C440.666 362.023 440.718 362.045 440.757 362.084C440.795 362.123 440.817 362.175 440.817 362.23C440.817 362.285 440.795 362.337 440.757 362.376C440.718 362.415 440.666 362.437 440.612 362.437Z" fill="#CCCCCC"/>
<path d="M427.95 312.941V339.868H360.781C358.982 339.931 357.188 339.629 355.507 338.981C353.826 338.332 352.292 337.351 350.997 336.094C349.702 334.838 348.672 333.333 347.968 331.668C347.265 330.003 346.902 328.213 346.902 326.404C346.902 324.596 347.265 322.806 347.968 321.141C348.672 319.476 349.702 317.971 350.997 316.714C352.292 315.458 353.826 314.476 355.507 313.828C357.188 313.18 358.982 312.878 360.781 312.941H427.95Z" fill="#F2F2F2"/>
<path d="M429.6 339.661C429.6 339.935 429.491 340.199 429.298 340.393C429.104 340.587 428.842 340.696 428.569 340.696H359.585C357.73 340.696 355.893 340.329 354.179 339.616C352.465 338.903 350.908 337.858 349.596 336.541C348.284 335.223 347.244 333.659 346.534 331.938C345.824 330.216 345.458 328.371 345.458 326.508C345.458 324.645 345.824 322.8 346.534 321.078C347.244 319.357 348.284 317.793 349.596 316.475C350.908 315.158 352.465 314.113 354.179 313.4C355.893 312.687 357.73 312.32 359.585 312.32H428.569C428.842 312.32 429.104 312.429 429.298 312.623C429.491 312.817 429.6 313.081 429.6 313.355C429.6 313.63 429.491 313.893 429.298 314.088C429.104 314.282 428.842 314.391 428.569 314.391H359.585C356.387 314.394 353.321 315.672 351.061 317.944C348.801 320.216 347.531 323.296 347.531 326.508C347.531 329.72 348.801 332.8 351.061 335.072C353.321 337.344 356.387 338.622 359.585 338.625H428.569C428.842 338.625 429.104 338.734 429.298 338.928C429.491 339.123 429.6 339.386 429.6 339.661V339.661Z" fill="#3F3D56"/>
<path d="M427.95 319.155H355.77C355.743 319.155 355.716 319.15 355.69 319.139C355.665 319.129 355.642 319.114 355.623 319.095C355.604 319.075 355.588 319.053 355.578 319.027C355.568 319.002 355.562 318.975 355.562 318.948C355.562 318.92 355.568 318.893 355.578 318.868C355.588 318.843 355.604 318.82 355.623 318.801C355.642 318.782 355.665 318.766 355.69 318.756C355.716 318.746 355.743 318.74 355.77 318.741H427.95C428.004 318.741 428.056 318.763 428.095 318.802C428.133 318.841 428.155 318.893 428.155 318.948C428.155 319.002 428.133 319.055 428.095 319.094C428.056 319.132 428.004 319.154 427.95 319.155V319.155Z" fill="#CCCCCC"/>
<path d="M427.95 324.126H355.77C355.743 324.126 355.716 324.121 355.69 324.111C355.665 324.1 355.642 324.085 355.623 324.066C355.604 324.047 355.588 324.024 355.578 323.998C355.568 323.973 355.562 323.946 355.562 323.919C355.562 323.892 355.568 323.864 355.578 323.839C355.588 323.814 355.604 323.791 355.623 323.772C355.642 323.753 355.665 323.737 355.69 323.727C355.716 323.717 355.743 323.712 355.77 323.712H427.95C428.004 323.712 428.056 323.734 428.095 323.773C428.133 323.812 428.155 323.864 428.155 323.919C428.155 323.974 428.133 324.026 428.095 324.065C428.056 324.104 428.004 324.126 427.95 324.126V324.126Z" fill="#CCCCCC"/>
<path d="M427.95 329.097H355.77C355.743 329.097 355.716 329.092 355.69 329.082C355.665 329.071 355.642 329.056 355.623 329.037C355.604 329.018 355.588 328.995 355.578 328.97C355.568 328.944 355.562 328.917 355.562 328.89C355.562 328.863 355.568 328.836 355.578 328.81C355.588 328.785 355.604 328.762 355.623 328.743C355.642 328.724 355.665 328.708 355.69 328.698C355.716 328.688 355.743 328.683 355.77 328.683H427.95C428.004 328.683 428.056 328.705 428.095 328.744C428.133 328.783 428.155 328.835 428.155 328.89C428.155 328.945 428.133 328.997 428.095 329.036C428.056 329.075 428.004 329.097 427.95 329.097V329.097Z" fill="#CCCCCC"/>
<path d="M427.95 334.068H355.77C355.743 334.068 355.716 334.063 355.69 334.053C355.665 334.042 355.642 334.027 355.623 334.008C355.604 333.989 355.588 333.966 355.578 333.941C355.568 333.915 355.562 333.888 355.562 333.861C355.562 333.834 355.568 333.807 355.578 333.781C355.588 333.756 355.604 333.733 355.623 333.714C355.642 333.695 355.665 333.68 355.69 333.669C355.716 333.659 355.743 333.654 355.77 333.654H427.95C428.004 333.654 428.056 333.676 428.095 333.715C428.133 333.754 428.155 333.806 428.155 333.861C428.155 333.916 428.133 333.968 428.095 334.007C428.056 334.046 428.004 334.068 427.95 334.068Z" fill="#CCCCCC"/>
<path d="M506.087 463.947V440.469C506.087 439.431 505.677 438.436 504.946 437.702C504.215 436.968 503.224 436.556 502.191 436.556H413.558C412.525 436.556 411.534 436.968 410.803 437.702C410.073 438.436 409.662 439.431 409.662 440.469V463.947H506.087Z" fill="#CCCCCC"/>
<path d="M506.087 472.751H409.662V503.077H506.087V472.751Z" fill="#CCCCCC"/>
<path d="M409.662 511.881V535.359C409.662 536.396 410.073 537.392 410.803 538.125C411.534 538.859 412.525 539.272 413.558 539.272H502.191C503.224 539.272 504.215 538.859 504.946 538.125C505.677 537.392 506.087 536.396 506.087 535.359V511.881H409.662Z" fill="#CCCCCC"/>
<path d="M457.388 454.165C459.002 454.165 460.31 452.851 460.31 451.23C460.31 449.609 459.002 448.295 457.388 448.295C455.774 448.295 454.466 449.609 454.466 451.23C454.466 452.851 455.774 454.165 457.388 454.165Z" fill="white"/>
<path d="M457.388 493.294C459.002 493.294 460.31 491.98 460.31 490.359C460.31 488.739 459.002 487.425 457.388 487.425C455.774 487.425 454.466 488.739 454.466 490.359C454.466 491.98 455.774 493.294 457.388 493.294Z" fill="white"/>
<path d="M457.544 531.595C459.158 531.595 460.466 530.281 460.466 528.661C460.466 527.04 459.158 525.726 457.544 525.726C455.931 525.726 454.622 527.04 454.622 528.661C454.622 530.281 455.931 531.595 457.544 531.595Z" fill="white"/>
<path d="M495.155 409.787V436.714H427.987C426.187 436.777 424.393 436.475 422.712 435.827C421.031 435.178 419.497 434.197 418.202 432.94C416.907 431.684 415.877 430.178 415.173 428.514C414.47 426.849 414.107 425.059 414.107 423.25C414.107 421.442 414.47 419.652 415.173 417.987C415.877 416.322 416.907 414.817 418.202 413.56C419.497 412.304 421.031 411.322 422.712 410.674C424.393 410.026 426.187 409.724 427.987 409.787H495.155Z" fill="#F2F2F2"/>
<path d="M496.805 436.506C496.805 436.781 496.696 437.045 496.503 437.239C496.309 437.433 496.047 437.542 495.774 437.542H426.79C424.934 437.544 423.096 437.178 421.381 436.466C419.665 435.753 418.107 434.708 416.794 433.391C415.481 432.073 414.439 430.508 413.728 428.786C413.018 427.064 412.652 425.218 412.652 423.354C412.652 421.49 413.018 419.644 413.728 417.921C414.439 416.199 415.481 414.635 416.794 413.317C418.107 411.999 419.665 410.954 421.381 410.242C423.096 409.53 424.934 409.164 426.79 409.166H495.774C496.047 409.166 496.309 409.275 496.503 409.469C496.696 409.663 496.805 409.926 496.805 410.201C496.805 410.476 496.696 410.739 496.503 410.933C496.309 411.128 496.047 411.237 495.774 411.237H426.79C423.592 411.24 420.527 412.518 418.266 414.79C416.006 417.062 414.737 420.142 414.737 423.354C414.737 426.566 416.006 429.646 418.266 431.918C420.527 434.19 423.592 435.468 426.79 435.471H495.774C496.047 435.471 496.309 435.58 496.503 435.774C496.696 435.969 496.805 436.232 496.805 436.506V436.506Z" fill="#3F3D56"/>
<path d="M495.155 416.001H422.975C422.948 416.001 422.921 415.996 422.896 415.985C422.87 415.975 422.848 415.96 422.828 415.941C422.809 415.921 422.794 415.898 422.783 415.873C422.773 415.848 422.767 415.821 422.767 415.794C422.767 415.766 422.773 415.739 422.783 415.714C422.794 415.689 422.809 415.666 422.828 415.647C422.848 415.627 422.87 415.612 422.896 415.602C422.921 415.591 422.948 415.586 422.975 415.586H495.155C495.209 415.587 495.262 415.609 495.3 415.648C495.338 415.686 495.36 415.739 495.36 415.794C495.36 415.848 495.338 415.901 495.3 415.94C495.262 415.978 495.209 416 495.155 416.001V416.001Z" fill="#CCCCCC"/>
<path d="M495.155 420.972H422.975C422.948 420.972 422.921 420.967 422.896 420.956C422.87 420.946 422.848 420.931 422.828 420.912C422.809 420.892 422.794 420.87 422.783 420.844C422.773 420.819 422.767 420.792 422.767 420.765C422.767 420.737 422.773 420.71 422.783 420.685C422.794 420.66 422.809 420.637 422.828 420.618C422.848 420.598 422.87 420.583 422.896 420.573C422.921 420.563 422.948 420.557 422.975 420.558H495.155C495.209 420.558 495.262 420.58 495.3 420.619C495.338 420.658 495.36 420.71 495.36 420.765C495.36 420.819 495.338 420.872 495.3 420.911C495.262 420.949 495.209 420.971 495.155 420.972V420.972Z" fill="#CCCCCC"/>
<path d="M495.155 425.943H422.975C422.948 425.943 422.921 425.938 422.896 425.928C422.87 425.917 422.848 425.902 422.828 425.883C422.809 425.863 422.794 425.841 422.783 425.815C422.773 425.79 422.767 425.763 422.767 425.736C422.767 425.708 422.773 425.681 422.783 425.656C422.794 425.631 422.809 425.608 422.828 425.589C422.848 425.57 422.87 425.554 422.896 425.544C422.921 425.534 422.948 425.529 422.975 425.529H495.155C495.209 425.529 495.262 425.551 495.3 425.59C495.338 425.629 495.36 425.681 495.36 425.736C495.36 425.79 495.338 425.843 495.3 425.882C495.262 425.921 495.209 425.943 495.155 425.943V425.943Z" fill="#CCCCCC"/>
<path d="M495.155 430.914H422.975C422.948 430.914 422.921 430.909 422.896 430.899C422.87 430.888 422.848 430.873 422.828 430.854C422.809 430.835 422.794 430.812 422.783 430.786C422.773 430.761 422.767 430.734 422.767 430.707C422.767 430.68 422.773 430.652 422.783 430.627C422.794 430.602 422.809 430.579 422.828 430.56C422.848 430.541 422.87 430.525 422.896 430.515C422.921 430.505 422.948 430.5 422.975 430.5H495.155C495.209 430.5 495.262 430.522 495.3 430.561C495.338 430.6 495.36 430.652 495.36 430.707C495.36 430.762 495.338 430.814 495.3 430.853C495.262 430.892 495.209 430.914 495.155 430.914V430.914Z" fill="#CCCCCC"/>
<path d="M410.605 222.039V50.3578C410.607 48.4071 411.379 46.5369 412.753 45.1575C414.126 43.7781 415.988 43.0022 417.93 43H553.05C554.993 43.0022 556.855 43.7781 558.228 45.1575C559.601 46.5369 560.374 48.4071 560.376 50.3578V222.039C560.374 223.99 559.601 225.86 558.228 227.239C556.855 228.619 554.993 229.395 553.05 229.397H417.93C415.988 229.395 414.126 228.619 412.753 227.239C411.379 225.86 410.607 223.99 410.605 222.039V222.039ZM417.93 44.6351C416.42 44.6368 414.971 45.2402 413.903 46.3131C412.835 47.3859 412.234 48.8405 412.233 50.3578V222.039C412.234 223.556 412.835 225.011 413.903 226.084C414.971 227.157 416.42 227.76 417.93 227.762H553.05C554.561 227.76 556.009 227.157 557.077 226.084C558.146 225.011 558.747 223.556 558.748 222.039V50.3578C558.747 48.8405 558.146 47.3859 557.077 46.3131C556.009 45.2402 554.561 44.6368 553.05 44.6351H417.93Z" fill="#E6E6E6"/>
<path d="M493.068 121.844V86.5924C493.069 85.617 493.455 84.6819 494.141 83.9922C494.828 83.3025 495.759 82.9146 496.73 82.9135H526.473C527.444 82.9146 528.375 83.3025 529.062 83.9922C529.749 84.6819 530.135 85.617 530.136 86.5924V121.844C530.135 122.819 529.749 123.754 529.062 124.444C528.375 125.134 527.444 125.522 526.473 125.523H496.73C495.759 125.522 494.828 125.134 494.141 124.444C493.455 123.754 493.069 122.819 493.068 121.844V121.844Z" fill="#6C63FF"/>
<path d="M435.275 138.195V102.943C435.276 101.968 435.662 101.033 436.349 100.343C437.036 99.6532 437.967 99.2653 438.938 99.2642H468.681C469.652 99.2653 470.583 99.6532 471.27 100.343C471.956 101.033 472.343 101.968 472.344 102.943V138.195C472.343 139.17 471.956 140.105 471.27 140.795C470.583 141.485 469.652 141.872 468.681 141.874H438.938C437.967 141.872 437.036 141.485 436.349 140.795C435.662 140.105 435.276 139.17 435.275 138.195V138.195Z" fill="#CCCCCC"/>
<path d="M481.672 188.064V152.812C481.673 151.837 482.059 150.902 482.746 150.212C483.432 149.522 484.363 149.135 485.335 149.133H515.077C516.048 149.135 516.979 149.522 517.666 150.212C518.353 150.902 518.739 151.837 518.74 152.812V188.064C518.739 189.039 518.353 189.974 517.666 190.664C516.979 191.354 516.048 191.742 515.077 191.743H485.335C484.363 191.742 483.432 191.354 482.746 190.664C482.059 189.974 481.673 189.039 481.672 188.064V188.064Z" fill="#FF6584"/>
<path d="M653.412 361.232H622.81C622.519 361.231 622.233 361.298 621.972 361.427L614.248 365.311C613.994 365.419 613.777 365.601 613.625 365.832C613.473 366.063 613.391 366.335 613.391 366.612C613.391 366.889 613.473 367.161 613.625 367.392C613.777 367.623 613.994 367.805 614.248 367.913L621.972 371.797C622.233 371.926 622.519 371.993 622.81 371.992H653.412C653.834 372.017 654.249 371.874 654.566 371.593C654.883 371.313 655.078 370.919 655.107 370.496V362.728C655.078 362.305 654.883 361.911 654.566 361.631C654.249 361.35 653.834 361.207 653.412 361.232Z" fill="#3F3D56"/>
<path d="M655.107 362.728V370.496C655.078 370.919 654.883 371.313 654.566 371.593C654.249 371.873 653.834 372.017 653.412 371.992H647.316V361.232H653.412C653.834 361.207 654.249 361.35 654.566 361.631C654.883 361.911 655.078 362.305 655.107 362.728V362.728Z" fill="#6C63FF"/>
<path d="M659.182 291.124C660.568 290.523 662.065 290.223 663.575 290.244C665.084 290.265 666.573 290.606 667.942 291.244C669.311 291.883 670.531 292.805 671.52 293.95C672.51 295.095 673.248 296.437 673.685 297.888C673.822 298.348 673.926 298.817 673.997 299.292L716.792 320.606L726.696 314.014L739.019 328.262L723.897 340.598C722.078 342.07 719.836 342.913 717.502 343.004C715.168 343.094 712.867 342.426 710.941 341.1L667.522 310.942C667.199 311.08 666.869 311.201 666.533 311.304C665.088 311.743 663.567 311.871 662.069 311.678C660.572 311.485 659.131 310.977 657.843 310.186C656.555 309.396 655.447 308.34 654.593 307.09C653.739 305.839 653.158 304.422 652.887 302.93C652.807 302.497 652.754 302.059 652.729 301.619C652.609 299.417 653.162 297.231 654.316 295.355C655.47 293.478 657.168 292.002 659.182 291.124V291.124Z" fill="#FFB8B8"/>
<path d="M742.316 434.354H695.555C695.555 435.704 647.362 436.799 647.362 436.799C646.606 437.371 645.917 438.028 645.307 438.756C643.477 440.949 642.476 443.72 642.483 446.582V448.538C642.484 451.781 643.767 454.891 646.05 457.183C648.333 459.476 651.429 460.765 654.657 460.766H742.316C745.544 460.763 748.64 459.474 750.922 457.182C753.205 454.889 754.488 451.78 754.491 448.538V446.582C754.487 443.34 753.203 440.232 750.92 437.94C748.638 435.648 745.544 434.358 742.316 434.354V434.354Z" fill="#3F3D56"/>
<path d="M691.451 542.453H704.113V460.281H691.451V542.453Z" fill="#3F3D56"/>
<path d="M655.414 542.006C655.414 543.38 674.601 542.537 698.269 542.537C721.938 542.537 741.125 543.38 741.125 542.006C741.125 540.632 721.938 529.736 698.269 529.736C674.601 529.736 655.414 540.632 655.414 542.006Z" fill="#3F3D56"/>
<path d="M666.844 532.375L654.904 532.374L649.222 501.269L666.846 501.27L666.844 532.375Z" fill="#FFB8B8"/>
<path d="M669.889 544L631.387 543.999V543.509C631.387 541.533 631.775 539.576 632.528 537.749C633.281 535.923 634.385 534.264 635.776 532.866C637.168 531.469 638.82 530.36 640.638 529.604C642.456 528.847 644.405 528.458 646.373 528.458H646.374L669.89 528.459L669.889 544Z" fill="#2F2E41"/>
<path d="M648.984 513.086L625.179 459.471C623.192 454.952 622.972 449.847 624.564 445.173C626.155 440.498 629.442 436.598 633.768 434.248L685.403 406.438L708.965 404.426L730.699 402.441L730.856 402.708C731.056 403.048 735.729 411.155 732.57 420.044C730.174 426.787 723.942 432.053 714.046 435.698C690.949 444.204 664.267 451.474 653.867 454.204C653.408 454.322 652.978 454.537 652.607 454.833C652.236 455.13 651.931 455.502 651.714 455.926C651.495 456.344 651.366 456.803 651.333 457.275C651.3 457.746 651.364 458.219 651.522 458.664L673.638 508.568C673.869 509.201 673.952 509.879 673.881 510.549C673.81 511.22 673.587 511.865 673.228 512.434C672.87 513.004 672.386 513.484 671.814 513.836C671.241 514.188 670.596 514.404 669.928 514.466L653.403 515.675C653.262 515.688 653.123 515.695 652.984 515.695C652.137 515.695 651.309 515.448 650.6 514.985C649.89 514.522 649.329 513.862 648.984 513.086V513.086Z" fill="#2F2E41"/>
<path d="M672.688 532.375L660.748 532.374L655.066 501.269L672.69 501.27L672.688 532.375Z" fill="#FFB8B8"/>
<path d="M675.733 544L637.231 543.999V543.509C637.231 541.533 637.619 539.576 638.372 537.749C639.125 535.923 640.229 534.264 641.62 532.866C643.012 531.469 644.664 530.36 646.482 529.604C648.3 528.847 650.249 528.458 652.217 528.458H652.218L675.734 528.459L675.733 544Z" fill="#2F2E41"/>
<path d="M655.802 516.021L631.997 462.406C630.01 457.887 629.79 452.782 631.382 448.107C632.973 443.433 636.26 439.532 640.586 437.182L692.221 409.373L715.783 407.36L737.517 405.376L737.674 405.643C737.874 405.983 742.547 414.09 739.388 422.979C736.992 429.721 730.76 434.988 720.864 438.633C697.767 447.139 671.085 454.409 660.685 457.139C660.226 457.257 659.796 457.471 659.425 457.768C659.054 458.065 658.749 458.437 658.531 458.86C658.313 459.279 658.184 459.738 658.151 460.209C658.118 460.68 658.182 461.153 658.34 461.598L680.456 511.503C680.687 512.136 680.77 512.814 680.699 513.484C680.628 514.154 680.405 514.799 680.046 515.369C679.688 515.939 679.204 516.419 678.632 516.771C678.059 517.123 677.414 517.339 676.746 517.401L660.221 518.61C660.08 518.623 659.941 518.63 659.802 518.63C658.955 518.629 658.127 518.383 657.418 517.92C656.708 517.457 656.147 516.797 655.802 516.021V516.021Z" fill="#2F2E41"/>
<path d="M649.937 340.233C639.934 326.869 632.026 312.046 626.488 296.279C626.167 295.336 626.19 294.309 626.552 293.381C626.915 292.453 627.593 291.685 628.467 291.212L662.698 272.79C663.252 272.49 663.866 272.321 664.495 272.295C665.124 272.269 665.75 272.388 666.327 272.642C666.914 272.899 667.435 273.286 667.85 273.775C668.265 274.264 668.564 274.841 668.724 275.464C672.708 290.657 680.197 304.696 690.586 316.443C691.013 316.921 691.327 317.491 691.502 318.109C691.677 318.727 691.71 319.377 691.597 320.01C691.489 320.633 691.24 321.222 690.871 321.734C690.501 322.246 690.02 322.666 689.464 322.963L655.233 341.384C654.358 341.853 653.345 341.995 652.375 341.784C651.405 341.573 650.541 341.024 649.937 340.233V340.233Z" fill="#CCCCCC"/>
<path d="M652.273 338.47C652.457 338.701 652.716 338.86 653.004 338.92C653.293 338.98 653.593 338.936 653.853 338.798L688.084 320.376C688.25 320.288 688.394 320.164 688.505 320.012C688.615 319.86 688.689 319.684 688.72 319.498C688.756 319.302 688.745 319.1 688.691 318.909C688.636 318.718 688.537 318.541 688.403 318.395C677.709 306.301 669.999 291.849 665.897 276.208C665.85 276.015 665.759 275.835 665.63 275.683C665.502 275.531 665.341 275.411 665.159 275.332C664.988 275.255 664.801 275.219 664.613 275.227C664.425 275.235 664.242 275.286 664.078 275.377L629.847 293.799C629.588 293.94 629.385 294.167 629.275 294.442C629.165 294.716 629.154 295.021 629.243 295.303C634.682 310.788 642.449 325.345 652.273 338.47V338.47Z" fill="white"/>
<path d="M757.658 347.319L730.849 357.551L724.304 339.29C723.435 336.865 723.447 334.21 724.339 331.794C725.23 329.377 726.944 327.355 729.176 326.084V326.084C731.434 324.799 734.076 324.367 736.623 324.867C739.171 325.366 741.456 326.764 743.068 328.808L757.658 347.319Z" fill="#6C63FF"/>
<path d="M689.469 419.67C688.905 419.269 688.432 418.752 688.082 418.153C687.733 417.555 687.514 416.888 687.44 416.198C684.006 384.004 686.398 358.81 694.751 339.176C696.222 335.79 698.438 332.782 701.233 330.38C704.028 327.977 707.328 326.242 710.887 325.305L732.557 324.207L732.67 324.261C737.56 326.667 741.548 330.591 744.042 335.452C746.537 340.314 747.406 345.853 746.519 351.249C739.549 369.702 733.713 388.914 738.164 404.413C738.35 405.061 738.405 405.74 738.324 406.409C738.243 407.079 738.028 407.725 737.692 408.31C737.367 408.874 736.93 409.366 736.408 409.754C735.886 410.143 735.29 410.42 734.658 410.568L693.381 420.43C692.713 420.59 692.018 420.605 691.344 420.473C690.669 420.342 690.03 420.068 689.469 419.67Z" fill="#6C63FF"/>
<path d="M731.325 304.077C744.537 304.077 755.247 293.32 755.247 280.051C755.247 266.781 744.537 256.024 731.325 256.024C718.113 256.024 707.403 266.781 707.403 280.051C707.403 293.32 718.113 304.077 731.325 304.077Z" fill="#FFB8B8"/>
<path d="M664.945 299.08L646.301 307.346C645.592 307.659 644.788 307.678 644.066 307.396C643.344 307.115 642.762 306.558 642.448 305.846L641.987 304.797C641.675 304.085 641.657 303.278 641.937 302.552C642.217 301.827 642.772 301.242 643.48 300.927L662.124 292.662C662.833 292.348 663.637 292.33 664.359 292.611C665.082 292.892 665.663 293.45 665.977 294.161L666.438 295.21C666.75 295.923 666.768 296.73 666.488 297.455C666.208 298.181 665.653 298.765 664.945 299.08V299.08Z" fill="#CCCCCC"/>
<path d="M665.763 323.797L647.119 332.063C646.41 332.377 645.606 332.395 644.884 332.114C644.162 331.832 643.58 331.275 643.266 330.563L642.805 329.514C642.493 328.802 642.475 327.995 642.755 327.269C643.035 326.544 643.59 325.959 644.298 325.644L662.942 317.379C663.651 317.065 664.455 317.047 665.177 317.328C665.9 317.609 666.481 318.167 666.795 318.878L667.256 319.927C667.568 320.64 667.586 321.447 667.306 322.173C667.026 322.898 666.471 323.482 665.763 323.797V323.797Z" fill="#CCCCCC"/>
<path d="M680.141 373.47L638.576 340.536C638.245 340.653 637.909 340.753 637.567 340.835C636.1 341.18 634.577 341.211 633.098 340.926C631.618 340.641 630.215 340.046 628.979 339.181C627.735 338.315 626.689 337.192 625.912 335.887C625.135 334.582 624.644 333.126 624.473 331.616C624.194 329.201 624.736 326.762 626.01 324.696C627.285 322.629 629.217 321.056 631.494 320.231C632.915 319.719 634.428 319.514 635.933 319.63C637.438 319.746 638.902 320.18 640.229 320.904C641.555 321.628 642.715 322.625 643.631 323.83C644.547 325.035 645.199 326.421 645.545 327.897C645.652 328.365 645.727 328.84 645.768 329.318L687.145 353.292L697.441 347.338L708.848 362.337L692.861 373.781C690.989 375.11 688.741 375.797 686.449 375.741C684.158 375.685 681.946 374.889 680.141 373.47V373.47Z" fill="#FFB8B8"/>
<path d="M713.92 367.007L690.204 350.81L701.35 334.956C702.829 332.851 705.003 331.339 707.485 330.687C709.968 330.036 712.6 330.286 714.916 331.395V331.395C717.259 332.517 719.125 334.443 720.178 336.826C721.231 339.209 721.401 341.891 720.657 344.389L713.92 367.007Z" fill="#6C63FF"/>
<path d="M722.555 276.472C716.406 280.698 708.333 285.043 702.053 280.542C697.93 277.587 696.631 272.114 698.303 267.312C701.31 258.675 709.571 254.873 717.471 251.958C727.741 248.17 738.924 245.156 749.526 247.869C760.129 250.582 769.499 260.892 767.585 271.712C766.045 280.412 757.874 287.652 759.034 296.412C760.201 305.228 770.073 309.868 778.788 311.444C787.503 313.02 797.255 313.526 803.518 319.813C811.508 327.833 809.513 342.169 801.995 350.637C794.477 359.105 783.132 362.943 772.138 365.553C757.573 369.01 741.819 370.827 727.985 365.089C714.152 359.351 703.387 343.906 707.394 329.423C709.087 323.305 713.074 318.135 716.928 313.101C720.782 308.068 724.684 302.804 726.154 296.629C727.379 291.483 726.472 285.508 723.074 281.647C722.456 280.972 722.067 280.117 721.963 279.205C721.859 278.293 722.046 277.372 722.495 276.574L722.555 276.472Z" fill="#2F2E41"/>
<path d="M267.235 405.209C261.071 407.385 254.452 407.93 248.017 406.792C241.582 405.653 235.548 402.87 230.495 398.709C217.627 387.861 213.592 369.989 210.309 353.441C207.073 337.125 203.836 320.809 200.599 304.494L220.928 318.552C235.547 328.663 250.496 339.097 260.618 353.741C270.741 368.385 275.159 388.376 267.026 404.221" fill="#E6E6E6"/>
<path d="M265.497 464.469C267.555 449.417 269.671 434.171 268.227 418.957C266.946 405.445 262.841 392.248 254.485 381.427C250.05 375.694 244.653 370.783 238.538 366.913C236.943 365.902 235.475 368.44 237.063 369.447C247.645 376.164 255.83 386.083 260.437 397.773C265.526 410.773 266.344 424.945 265.467 438.755C264.936 447.106 263.812 455.403 262.68 463.689C262.59 464.064 262.646 464.459 262.836 464.794C263.025 465.129 263.334 465.379 263.7 465.494C264.074 465.595 264.472 465.544 264.808 465.352C265.145 465.161 265.392 464.843 265.497 464.469H265.497Z" fill="#F2F2F2"/>
<path d="M245.68 437.833C243.036 441.869 239.402 445.153 235.128 447.368C230.853 449.584 226.083 450.657 221.276 450.483C208.923 449.894 198.625 441.235 189.354 433.014L161.933 408.697L180.081 407.825C193.132 407.198 206.52 406.613 218.951 410.655C231.381 414.697 242.846 424.425 245.119 437.348" fill="#E6E6E6"/>
<path d="M271.312 473.122C261.409 455.523 249.922 435.963 229.397 429.711C223.69 427.978 217.706 427.358 211.767 427.883C209.895 428.045 210.362 430.943 212.231 430.781C222.186 429.951 232.122 432.591 240.366 438.257C248.299 443.68 254.475 451.22 259.703 459.216C262.906 464.113 265.774 469.219 268.643 474.317C269.56 475.947 272.24 474.771 271.312 473.122V473.122Z" fill="#F2F2F2"/>
<path d="M287.18 491.647C286.846 487.764 285.458 484.047 283.167 480.902C280.875 477.756 277.768 475.302 274.184 473.807V463.633H257.193V474.128C253.786 475.696 250.853 478.144 248.694 481.221C246.536 484.299 245.228 487.897 244.905 491.647L240.91 538.293H291.175L287.18 491.647Z" fill="#F2F2F2"/>
</g>
<defs>
<clipPath id="clip0_1_105">
<rect width="674" height="489" fill="white" transform="translate(161 55)"/>
</clipPath>
</defs>
</svg>
